:SAMPLES-PER-SECOND 30
:FULLY-SPECIFIED
:DEGREES
578
root  4.54038 32.653 2.04659 -114.352 -85.4816 124.478
RightUpLeg  -31.6993 -19.8034 11.552
RightLeg  13.796 -10.7916 -1.90901
RightFoot  6.94671 0.102226 -1.30643
RightToes  -7.16075 -0.022001 -0.0664666
Spine  7.79796 4.58396 2.86478
Spine1  15.1409 11.5555 0.150768
HEad  3.62987 -31.6952 25.9273
LeftShoulder1  0 -2.42657e-020 -4.95415e-022
LeftArm  -34.146 -1.35205 -81.0634
LeftForeArm  50.0311 -24.4996 -4.57621
LeftHand  0.214049 -8.8033 -3.15265
RightShoulder  0 2.42657e-020 1.07489e-018
RightArm  -79.6529 28.2164 66.6704
RightForeArm  14.9644 16.8677 3.06059
RightHand  -0.494893 6.71761 -8.05511
LeftUpLeg  -10.8708 10.2192 -6.01488
LeftLeg  27.6431 3.45501 1.53081
LeftFoot  -13.3631 -0.118941 -1.0153
LeftToes  0.280933 1.33192e-006 1.13262e-007
579
root  5.2006 32.5242 2.01356 -101.354 -86.241 110.932
RightUpLeg  -32.3711 -20.8029 12.2223
RightLeg  13.6943 -10.8363 -1.89707
RightFoot  7.55769 0.121257 -1.45803
RightToes  -6.09254 -0.0181943 -0.0567336
Spine  7.55552 4.25601 2.70438
Spine1  14.6379 10.6288 0.241852
HEad  4.15859 -32.4309 26.1982
LeftShoulder1  0 -2.42657e-020 -4.95415e-022
LeftArm  -34.7195 -0.239333 -80.7162
LeftForeArm  49.984 -25.8607 -4.87031
LeftHand  0.367576 -9.49794 -4.79585
RightShoulder  0 2.42657e-020 1.07489e-018
RightArm  -76.1236 25.4988 68.4245
RightForeArm  14.2387 18.3381 3.34558
RightHand  -0.474602 6.82686 -7.5815
LeftUpLeg  -7.77553 9.57353 -6.27027
LeftLeg  25.8533 3.88794 1.57964
LeftFoot  -14.7259 -0.16003 -1.2384
LeftToes  0.933066 1.33192e-006 1.13262e-007
580
root  5.92656 32.3592 1.96815 -76.6712 -86.6858 85.4322
RightUpLeg  -32.9381 -21.5608 12.6184
RightLeg  13.8058 -11.6062 -2.05298
RightFoot  8.13007 0.149432 -1.72475
RightToes  -5.30404 -0.0153318 -0.0495045
Spine  7.33508 3.84618 2.50903
Spine1  14.1384 9.51419 0.293909
HEad  5.13892 -33.4694 26.1596
LeftShoulder1  0 -2.42657e-020 -4.95415e-022
LeftArm  -33.9525 0.579652 -80.206
LeftForeArm  49.5353 -27.6317 -5.26445
LeftHand  0.486218 -10.3663 -5.73
RightShoulder  0 2.42657e-020 1.07489e-018
RightArm  -72.8695 21.8896 70.0143
RightForeArm  14.2544 19.531 3.58076
RightHand  -0.80652 9.0936 -9.75265
LeftUpLeg  -5.32077 7.67304 -6.38918
LeftLeg  25.1612 4.39018 1.72228
LeftFoot  -16.3251 -0.216604 -1.51004
LeftToes  3.0834 1.33192e-006 1.13262e-007
581
root  6.72025 32.162 1.90959 -47.8552 -86.1417 55.4858
RightUpLeg  -33.4207 -22.5949 12.8174
RightLeg  14.0833 -12.4722 -2.26536
RightFoot  8.68684 0.182668 -2.02696
RightToes  -4.90636 -0.0131309 -0.0458447
Spine  7.21338 3.32944 2.2432
Spine1  13.7944 8.1824 0.207185
HEad  6.77481 -34.4982 25.7778
LeftShoulder1  0 -2.42657e-020 -4.95415e-022
LeftArm  -31.2778 0.625555 -79.166
LeftForeArm  48.2941 -29.131 -5.61003
LeftHand  0.506093 -10.4985 -5.87813
RightShoulder  0 2.42657e-020 1.07489e-018
RightArm  -69.5707 17.9293 71.4165
RightForeArm  15.3443 20.0119 3.67699
RightHand  -0.836054 9.6501 -9.51638
LeftUpLeg  -3.61829 4.66792 -6.60654
LeftLeg  25.538 4.75423 1.90101
LeftFoot  -17.6521 -0.267537 -1.72289
LeftToes  3.41449 1.33192e-006 1.13262e-007
582
root  7.61758 31.9444 1.82203 -29.6297 -84.5699 35.7773
RightUpLeg  -33.6236 -23.674 12.6696
RightLeg  14.2339 -13.6053 -2.50354
RightFoot  9.40891 0.231536 -2.43526
RightToes  -4.46002 -0.0127288 -0.0417262
Spine  7.33741 2.74584 1.80822
Spine1  13.9099 6.7024 -0.114763
HEad  7.31498 -35.3565 26.223
LeftShoulder1  0 -2.42657e-020 -4.95415e-022
LeftArm  -28.7067 -0.95718 -77.7814
LeftForeArm  48.2846 -29.7249 -5.74895
LeftHand  0.540068 -10.9836 -5.98648
RightShoulder  0 2.42657e-020 1.07489e-018
RightArm  -65.8025 14.0759 72.8358
RightForeArm  17.1283 20.2427 3.72372
RightHand  -0.646811 8.82645 -8.00185
LeftUpLeg  -2.6633 2.55257 -6.63702
LeftLeg  25.9123 4.75218 1.93618
LeftFoot  -19.1488 -0.309321 -1.83365
LeftToes  1.74004 1.33192e-006 1.13262e-007
583
root  8.63448 31.752 1.79041 -26.5528 -82.0003 30.9286
RightUpLeg  -34.0205 -25.583 11.525
RightLeg  14.7919 -14.1118 -2.73545
RightFoot  10.265 0.284169 -2.78525
RightToes  -5.54208 -0.0163037 -0.0516909
Spine  7.78884 1.9702 0.952325
Spine1  14.5995 4.8336 -1.11539
HEad  6.95904 -36.0178 27.4984
LeftShoulder1  0 -2.42657e-020 -4.95415e-022
LeftArm  -26.6436 -4.0035 -75.9939
LeftForeArm  48.4049 -28.5978 -5.48655
LeftHand  0.536012 -11.167 -5.85235
RightShoulder  0 2.42657e-020 1.07489e-018
RightArm  -61.6106 10.7095 74.7663
RightForeArm  18.328 20.4828 3.77218
RightHand  -0.65617 9.28445 -7.70304
LeftUpLeg  -2.99961 1.25824 -7.3644
LeftLeg  26.8402 3.67465 1.56707
LeftFoot  -20.3315 -0.267835 -1.49362
LeftToes  1.16032 1.33192e-006 1.13262e-007
584
root  9.72976 31.6122 1.77985 -27.5969 -79.0638 30.2505
RightUpLeg  -34.8977 -28.1633 9.93892
RightLeg  16.0808 -13.8041 -2.9975
RightFoot  10.7026 0.307479 -2.90393
RightToes  -11.0509 -0.0373816 -0.101272
Spine  8.65824 0.98947 -0.252989
Spine1  16.1046 2.41631 -2.47794
HEad  6.04436 -36.5336 29.6311
LeftShoulder1  0 -2.42657e-020 -4.95415e-022
LeftArm  -25.1902 -7.81877 -73.8062
LeftForeArm  47.4881 -26.9861 -5.12308
LeftHand  0.441363 -10.8184 -5.03174
RightShoulder  0 2.42657e-020 1.07489e-018
RightArm  -59.1894 8.6225 77.5318
RightForeArm  18.6445 20.5643 3.78864
RightHand  -0.625157 9.92963 -6.82157
LeftUpLeg  -5.70559 0.224664 -8.62574
LeftLeg  31.7062 2.41336 1.27996
LeftFoot  -20.1569 -0.171696 -0.965984
LeftToes  -0.0129632 1.33192e-006 1.13262e-007
585
root  10.8106 31.5261 1.75044 -26.3583 -76.788 28.103
RightUpLeg  -36.7899 -32.4469 10.1636
RightLeg  16.983 -11.0117 -2.58223
RightFoot  11.8326 0.311239 -2.62505
RightToes  -24.454 -0.107654 -0.211633
Spine  9.06692 0.175653 -1.1905
Spine1  16.9376 0.306778 -3.10025
HEad  5.81756 -37.4327 30.1935
LeftShoulder1  0 -2.42657e-020 -4.95415e-022
LeftArm  -24.2968 -10.1367 -72.4976
LeftForeArm  46.5807 -26.9722 -5.12147
LeftHand  0.331058 -10.4601 -3.9881
RightShoulder  0 2.42657e-020 1.07489e-018
RightArm  -59.0693 6.44937 80.1015
RightForeArm  19.6913 20.0033 3.67619
RightHand  -0.560608 10.4385 -5.76494
LeftUpLeg  -8.01414 0.371163 -9.14856
LeftLeg  34.2663 0.554706 0.323478
LeftFoot  -19.6736 -0.0341843 -0.19716
LeftToes  -0.584441 1.33192e-006 1.13262e-007
586
root  11.7288 31.5315 1.73892 -26.4646 -74.9022 27.1954
RightUpLeg  -38.2298 -36.5971 10.0605
RightLeg  18.0862 -7.94643 -2.0321
RightFoot  12.1977 0.259455 -2.05022
RightToes  -37.9738 -0.202503 -0.303393
Spine  9.30428 -0.529526 -1.86835
Spine1  17.5119 -1.45037 -3.51239
HEad  6.99383 -38.2527 29.0956
LeftShoulder1  0 -2.42657e-020 -4.95415e-022
LeftArm  -25.1176 -11.4027 -72.2556
LeftForeArm  47.0139 -26.2586 -4.96267
LeftHand  0.290413 -10.2751 -3.60161
RightShoulder  0 2.42657e-020 1.07489e-018
RightArm  -60.0246 4.20473 82.1637
RightForeArm  20.4508 19.2222 3.5209
RightHand  -0.505998 10.6223 -5.07203
LeftUpLeg  -8.80629 -0.931339 -10.1421
LeftLeg  34.736 0.406913 0.24058
LeftFoot  -18.617 -0.0159355 -0.0972313
LeftToes  -0.927461 1.33192e-006 1.13262e-007
587
root  12.5465 31.6876 1.62708 -26.8856 -74.6449 26.8381
RightUpLeg  -37.1201 -34.1979 7.3368
RightLeg  20.1482 -8.01222 -2.35855
RightFoot  9.79806 0.180747 -1.73084
RightToes  -32.1477 -0.158987 -0.266613
Spine  9.34259 -0.652723 -2.24549
Spine1  17.6726 -1.84812 -3.77297
HEad  7.65641 -38.6136 28.2606
LeftShoulder1  0 -2.42657e-020 -4.95415e-022
LeftArm  -26.6865 -11.4388 -72.5078
LeftForeArm  48.0065 -25.4654 -4.78764
LeftHand  0.29051 -10.3503 -3.57907
RightShoulder  0 2.42657e-020 1.07489e-018
RightArm  -63.5843 2.3317 83.9339
RightForeArm  23.6506 17.5815 3.19923
RightHand  -0.522566 11.2853 -4.91808
LeftUpLeg  -9.31236 -0.828944 -10.2342
LeftLeg  34.3098 0.237069 0.135988
LeftFoot  -16.8182 -0.00342823 -0.0231995
LeftToes  -1.20351 1.33192e-006 1.13262e-007
